<?xml version="1.0" standalone="no"?>
<!DOCTYPE svg PUBLIC "-//W3C//DTD SVG 20010904//EN"
 "http://www.w3.org/TR/2001/REC-SVG-20010904/DTD/svg10.dtd">
<svg version="1.0" xmlns="http://www.w3.org/2000/svg"
 width="256.000000pt" height="256.000000pt" viewBox="0 0 256.000000 256.000000"
 preserveAspectRatio="xMidYMid meet">
<metadata>
Created by potrace 1.14, written by Peter Selinger 2001-2017
</metadata>
<g transform="translate(0.000000,256.000000) scale(0.100000,-0.100000)"
fill="#000000" stroke="none">
<path d="M606 2402 c-11 -2 -42 -19 -70 -37 -28 -17 -101 -60 -163 -95 -169
-95 -241 -161 -368 -336 -31 -43 132 -337 256 -463 49 -49 78 -64 164 -81 33
-6 85 -23 116 -36 l55 -25 39 -132 c50 -171 88 -254 171 -374 l68 -98 1 -150
0 -150 64 -1 c46 -1 66 -6 72 -17 8 -13 13 -13 44 3 21 11 47 16 67 13 18 -3
40 -5 48 -5 8 1 44 2 79 3 77 4 92 -10 85 -77 -3 -26 -1 -44 5 -44 15 0 24 20
26 54 3 72 72 136 155 144 69 6 112 -12 108 -47 -3 -25 -2 -26 62 -29 66 -3
83 -3 158 -2 24 1 49 -3 56 -9 8 -7 16 -7 23 0 8 8 39 12 83 9 50 -4 170 4
170 11 0 10 43 40 62 43 7 1 23 7 34 14 12 6 39 14 61 18 33 5 56 22 131 95
l92 89 0 70 c0 203 -81 338 -255 427 -79 40 -95 52 -95 71 0 42 -50 130 -97
171 -47 42 -135 81 -182 81 -15 0 -42 -5 -60 -11 -28 -10 -35 -9 -54 9 -12 11
-44 30 -72 42 -166 73 -211 102 -146 92 24 -3 32 1 47 27 10 17 24 31 31 31 7
0 13 9 13 19 0 14 8 21 28 23 21 2 26 8 24 23 -2 11 -6 34 -9 51 -3 19 1 36
10 45 25 25 34 53 41 121 5 50 3 77 -8 103 -39 92 -223 209 -311 198 -26 -3
-32 1 -41 26 -12 31 -82 88 -121 97 -56 14 -222 -108 -224 -165 -2 -41 1 -59
29 -186 26 -115 32 -177 20 -192 -14 -17 33 -18 50 -1 9 9 12 8 12 -6 0 -25
-54 -76 -81 -76 -22 0 -22 -1 -7 -17 11 -10 33 -16 63 -16 25 0 45 -4 45 -8 0
-19 -22 -64 -38 -76 -36 -29 -92 -63 -104 -63 -6 0 -39 28 -72 63 -78 81 -134
108 -238 116 l-80 6 -42 55 c-48 63 -96 83 -179 74 l-51 -5 26 28 c28 30 51
77 74 155 11 34 29 59 70 97 l56 52 45 -42 c56 -51 138 -90 176 -82 15 3 40
18 56 32 27 26 29 30 20 74 -16 88 -33 104 -154 147 -90 32 -133 40 -169 32z
m1378 -1487 c28 -43 116 -125 142 -131 29 -7 31 -25 4 -49 -10 -9 -24 -34 -31
-54 -19 -59 -36 -79 -98 -111 -33 -16 -68 -40 -79 -54 -31 -41 -64 -51 -100
-32 -17 9 -48 16 -68 16 l-36 0 6 78 c10 105 10 106 66 146 57 41 117 113 144
174 10 23 22 42 26 42 4 0 15 -11 24 -25z"/>
<path d="M2340 473 c-8 -2 -21 -7 -29 -9 -10 -3 -10 -8 -2 -18 8 -10 7 -32 -4
-87 -30 -140 -30 -142 -3 -134 29 9 28 8 34 40 6 35 18 58 39 75 15 13 16 10
9 -26 -14 -70 -11 -89 11 -86 11 2 29 12 40 23 18 18 18 19 1 19 -12 0 -16 5
-12 16 3 9 9 33 12 55 8 47 -12 60 -51 35 -27 -18 -39 -21 -31 -7 3 5 8 26 11
47 3 22 8 45 10 52 4 12 -8 14 -35 5z"/>
<path d="M161 435 c-28 -30 -19 -72 23 -110 39 -36 45 -59 19 -74 -21 -11 -53
3 -53 23 0 8 -7 19 -15 26 -13 11 -15 7 -15 -22 0 -27 5 -37 23 -44 12 -6 28
-9 35 -8 6 1 21 2 32 3 29 2 60 37 60 67 0 18 -13 39 -41 66 -29 28 -38 44
-34 58 9 28 33 25 47 -5 14 -32 24 -32 31 0 3 18 -1 29 -14 36 -28 15 -77 7
-98 -16z"/>
<path d="M1469 439 c-57 -34 -86 -118 -59 -170 28 -52 160 -59 166 -8 1 5 2
15 3 23 0 8 8 22 17 30 14 15 10 16 -40 16 -31 0 -56 -4 -56 -10 0 -5 7 -10
16 -10 11 0 14 -5 10 -16 -3 -9 -6 -22 -6 -30 0 -18 -34 -18 -50 1 -28 34 -1
143 42 166 26 14 58 2 58 -22 0 -31 27 -22 32 11 3 19 0 31 -10 35 -30 11 -89
4 -123 -16z"/>
<path d="M2232 434 c-12 -8 -22 -22 -22 -30 0 -8 -7 -14 -15 -14 -17 0 -21
-16 -5 -22 6 -2 6 -25 -2 -66 -14 -76 -2 -93 45 -63 31 19 36 38 10 33 -12 -3
-14 2 -8 25 8 30 13 54 14 64 1 4 11 10 24 14 20 6 20 8 3 12 -14 4 -17 11
-12 34 6 33 0 36 -32 13z"/>
<path d="M305 370 c-23 -15 -26 -20 -14 -25 13 -5 14 -13 6 -49 -13 -56 -5
-76 25 -69 13 3 28 12 34 20 10 11 12 10 17 -7 6 -22 28 -19 59 8 18 15 15 37
-4 26 -6 -4 -8 1 -4 12 18 62 23 104 12 104 -22 0 -45 -24 -50 -51 -5 -29 -27
-69 -38 -69 -4 0 -5 10 -2 23 21 106 16 115 -41 77z"/>
<path d="M490 370 c-22 -17 -21 -25 3 -21 5 1 6 -6 3 -16 -3 -10 -7 -29 -10
-43 -3 -14 -7 -35 -10 -47 -5 -25 -3 -26 30 -17 16 4 23 16 28 43 5 33 42 88
52 78 2 -2 -1 -19 -6 -38 -6 -19 -13 -47 -16 -63 -4 -26 -3 -28 18 -22 13 3
26 6 29 6 4 0 9 17 13 38 3 20 15 48 26 62 l20 25 -7 -35 c-4 -19 -7 -48 -8
-65 0 -25 4 -29 20 -27 11 2 29 12 40 23 18 18 18 19 2 19 -15 0 -17 5 -11 23
4 12 8 38 8 57 1 40 -21 51 -49 24 -16 -16 -18 -16 -27 -1 -12 23 -30 21 -62
-4 l-26 -20 0 20 c0 27 -27 27 -60 1z"/>
<path d="M761 370 c-18 -16 -20 -21 -8 -26 13 -5 13 -12 1 -57 -14 -53 -13
-60 11 -63 16 -2 34 23 40 58 4 21 45 71 52 64 2 -2 -3 -29 -12 -61 -9 -31
-15 -58 -13 -60 1 -2 15 -1 30 2 21 4 28 12 33 42 3 20 15 47 25 61 l19 25 -5
-25 c-3 -14 -8 -44 -11 -66 -5 -40 -5 -42 20 -37 14 3 34 14 43 24 16 18 16
19 -1 19 -12 0 -15 5 -11 16 3 9 9 33 12 55 8 46 -12 60 -50 35 -21 -13 -25
-13 -30 -1 -8 21 -29 19 -60 -6 l-26 -20 0 20 c0 27 -27 27 -59 1z"/>
<path d="M1078 379 c-43 -16 -73 -100 -49 -138 12 -19 63 -16 95 4 29 20 35
41 9 30 -31 -13 -57 -10 -61 6 -2 11 6 19 25 24 54 13 85 65 47 79 -20 8 -33
7 -66 -5z m18 -47 c-14 -14 -16 -14 -16 -1 0 20 23 44 29 28 2 -6 -4 -18 -13
-27z"/>
<path d="M1194 369 c-11 -12 -14 -23 -8 -27 10 -7 10 -23 -2 -84 -5 -29 -3
-38 7 -38 24 0 36 14 44 50 11 51 23 70 46 70 24 0 36 27 20 43 -9 9 -16 9
-31 -1 -12 -7 -20 -8 -20 -2 0 18 -36 11 -56 -11z"/>
<path d="M1633 365 c-24 -21 -25 -24 -9 -25 14 0 17 -5 12 -22 -3 -13 -9 -41
-13 -62 -5 -35 -4 -39 11 -33 10 4 22 7 26 7 5 0 12 17 16 38 9 52 22 72 45
72 24 0 36 27 20 43 -9 9 -16 9 -31 -1 -12 -7 -20 -8 -20 -2 0 18 -28 11 -57
-15z"/>
<path d="M1799 375 c-45 -24 -64 -109 -31 -137 30 -27 101 -4 121 39 15 32 14
86 -1 101 -16 16 -57 15 -89 -3z m51 -45 c0 -37 -20 -82 -34 -77 -6 2 -10 23
-9 46 2 67 43 96 43 31z"/>
<path d="M1946 374 c-20 -19 -21 -34 -2 -34 7 0 13 -8 13 -17 0 -84 3 -102 18
-96 9 3 22 18 31 34 13 26 36 41 33 22 -1 -5 -1 -20 0 -35 2 -39 23 -27 71 40
42 59 50 89 25 99 -21 7 -28 -1 -30 -34 -3 -47 -5 -53 -14 -53 -5 0 -12 21
-16 46 -7 47 -20 53 -39 19 -31 -55 -33 -57 -34 -25 -1 51 -25 66 -56 34z"/>
<path d="M106 149 c3 -5 478 -9 1180 -9 734 0 1173 4 1169 9 -3 6 -454 10
-1180 10 -711 -1 -1173 -4 -1169 -10z"/>
</g>
</svg>
